# xmcd
# 
# Track frame offsets:
#     183
#     15353
#     28653
#     40878
#     53153
#     66758
#     79328
#     93153
#     106053
#     120803
#     132728
#     145703
#     157728
#     171503
#     182303
#     195803
#     211265
#     222503
#     234053
#     245698
# 
# Disc length: 3429
# 
# Revision: 9
# Processed by: cddbd v1.5.2PL0 Copyright (c) Steve Scherf et al.
# Submitted via: fre:ac v1.0.31
# 
DISCID=fb0d6314
DTITLE=Various Artist - The Gold Collection [CD1]
DYEAR=1995
DGENRE=Blues
TTITLE0=Mississippi John Hurt - Frankie
TTITLE1=Mississippi John Hurt - Stack O' Lee Blues
TTITLE2=Mississippi John Hurt - Candy Man Blues
TTITLE3=Blind Lemon Jefferson - Jack O' Diamonds
TTITLE4=Blind Lemon Jefferson - Hangman's Blues
TTITLE5=Blind Lemon Jefferson - Low Down Mojo Blues
TTITLE6=Leadbelly - Midnight Special
TTITLE7=Leadbelly - Good Morning Blues
TTITLE8=Leadbelly - Easy Rider
TTITLE9=Big Bill Broonzy - Trucking Little Woman
TTITLE10=Big Bill Broonzy - Bull Cow Blues
TTITLE11=Robert Johnson - Cross Road Blues
TTITLE12=Robert Johnson - Sweet Home Chicago
TTITLE13=Robert Johnson - Love in Vain
TTITLE14=Woody Guthrie - House of the Rising Sun
TTITLE15=Woody Guthrie - Mean Talking Blues
TTITLE16=Woody Guthrie - Little Black Train
TTITLE17=Lightnin' Hopkins - Black Cat
TTITLE18=Lightnin' Hopkins - House Upon the Hill
TTITLE19=Lightnin' Hopkins - Someday Baby
EXTD=
EXTT0=
EXTT1=
EXTT2=
EXTT3=
EXTT4=
EXTT5=
EXTT6=
EXTT7=
EXTT8=
EXTT9=
EXTT10=
EXTT11=
EXTT12=
EXTT13=
EXTT14=
EXTT15=
EXTT16=
EXTT17=
EXTT18=
EXTT19=
PLAYORDER=
